<svg xmlns="http://www.w3.org/2000/svg" width="800" height="800" viewBox="0 0 32 32" xml:space="preserve"><path d="M25 26.5a6.53 6.53 0 0 1-5.866-3.715l-.136-.285h-5.996l-.136.285A6.53 6.53 0 0 1 7 26.5 6.51 6.51 0 0 1 .5 20c0-.482.059-.979.175-1.477l2.104-9.175C3.532 7.029 5.626 5.5 8 5.5c1.572 0 3.02.651 4.076 1.833l.15.167h7.549l.149-.167A5.4 5.4 0 0 1 24 5.5a5.48 5.48 0 0 1 5.209 3.807l2.115 9.211c.117.501.176.999.176 1.482 0 3.584-2.916 6.5-6.5 6.5" style="fill:#788287"/><path d="M7 18.5a.5.5 0 0 1-.5-.5v-1.5H5a.5.5 0 0 1-.5-.5v-2c0-.275.225-.5.5-.5h1.5V12c0-.275.225-.5.5-.5h2c.275 0 .5.225.5.5v1.5H11c.275 0 .5.225.5.5v2c0 .275-.225.5-.5.5H9.5V18c0 .275-.225.5-.5.5z" style="fill:#a3aeb5"/><circle cx="25" cy="12" r="1.5" style="fill:#ead13f"/><circle cx="25" cy="17" r="1.5" style="fill:#6f9b45"/><circle cx="20" cy="13" r="1.5" style="fill:#cc4121"/><circle cx="20" cy="18" r="1.5" style="fill:#248ebc"/><path d="m31.812 18.406-2.127-9.255A5.98 5.98 0 0 0 24 5a5.93 5.93 0 0 0-4.449 2h-7.102A5.93 5.93 0 0 0 8 5a5.97 5.97 0 0 0-5.684 4.151L.188 18.41A7 7 0 0 0 0 20c0 3.86 3.14 7 7 7a7.01 7.01 0 0 0 6.319-4h5.363a7.01 7.01 0 0 0 6.319 4c3.86 0 7-3.14 7-7a7 7 0 0 0-.189-1.594M25 26a6 6 0 0 1-5.651-4h-6.698A5.997 5.997 0 0 1 1 20c0-.471.06-.927.162-1.366l2.104-9.173C3.919 7.458 5.779 6 8 6c1.63 0 3.065.792 3.977 2h8.045C20.935 6.792 22.37 6 24 6c2.221 0 4.081 1.458 4.733 3.461l2.104 9.173c.103.439.163.895.163 1.366a6 6 0 0 1-6 6m-5-15a2 2 0 1 0-.001 3.999A2 2 0 0 0 20 11m0 3c-.551 0-1-.449-1-1s.449-1 1-1 1 .449 1 1-.449 1-1 1m5-4a2 2 0 1 0-.001 3.999A2 2 0 0 0 25 10m0 3c-.551 0-1-.449-1-1s.449-1 1-1 1 .449 1 1-.449 1-1 1m-5 3a2 2 0 1 0-.001 3.999A2 2 0 0 0 20 16m0 3c-.551 0-1-.449-1-1s.449-1 1-1 1 .449 1 1-.449 1-1 1m5-4a2 2 0 1 0-.001 3.999A2 2 0 0 0 25 15m0 3c-.551 0-1-.449-1-1s.449-1 1-1 1 .449 1 1-.449 1-1 1m-14-5h-1v-1a1 1 0 0 0-1-1H7a1 1 0 0 0-1 1v1H5a1 1 0 0 0-1 1v2a1 1 0 0 0 1 1h1v1a1 1 0 0 0 1 1h2a1 1 0 0 0 1-1v-1h1a1 1 0 0 0 1-1v-2a1 1 0 0 0-1-1m0 3H9v2H7v-2H5v-2h2v-2h2v2h2z" style="fill:#231f20"/></svg>